<?xml version="1.0"?><svg width="640" height="480" xmlns="http://www.w3.org/2000/svg">
 <title>grey paint roller</title>
 <g>
  <title>Layer 1</title>
  <switch>
   <g>
    <g id="Layer_1">
     <g>
      <switch fill="#7f7f7f" id="XMLID_2_"/>
      <g>
       <path fill-rule="evenodd" fill="#7f7f7f" d="m47.124023,37.636002c-8.820007,-0.144001 -15.588013,-0.144001 -20.59201,0c-5.040009,0.071999 -6.40799,0.287998 -9.360016,0.792c-3.059998,0.359997 -6.119995,0.827999 -8.603973,2.087997c-2.556,1.224003 -4.968018,3.096001 -6.264008,5.472c-1.403992,2.448002 -2.015991,5.220001 -1.835999,8.856003v60.695999c-0.072021,1.872002 -0.072021,3.996002 0,6.515999c0.03598,2.484001 -0.468018,5.723999 0.287994,8.315994c0.612,2.340012 1.90799,4.248001 3.888,6.264008c1.872009,1.979996 4.932007,3.852005 7.812012,5.472c2.843994,1.548004 5.975983,2.843994 9.395996,3.888l95.075989,40.643997c2.843994,0.899994 5.615997,1.979996 8.604004,3.384003c2.916016,1.403992 6.192017,3.167999 8.856018,4.716003c2.556,1.367996 4.823975,2.195999 6.227966,3.888c1.188019,1.655991 1.080017,3.599991 1.332031,5.975998c0.287994,2.339996 0.323975,4.82399 0.251984,7.847992c-1.259979,17.928009 -1.259979,29.412003 0,35.424011c1.259979,5.687988 6.191986,5.327988 7.559998,-0.540009c1.223999,-5.903992 1.223999,-17.171997 0,-34.380005c0.071991,-3.419998 0.071991,-6.191986 0,-8.855988c-0.216003,-2.59201 0.036011,-4.896011 -0.791992,-6.768005c-0.828003,-1.944 -2.59201,-3.311996 -4.175995,-4.680008c-1.728027,-1.547989 -3.671997,-2.627991 -5.976013,-3.923996c-2.339996,-1.29599 -4.895996,-2.375992 -7.812012,-3.636002c-2.951965,-1.29599 -6.299988,-2.735992 -9.899994,-4.175995l-100.044006,-41.940002c-4.715973,-1.871994 -7.919983,-3.419998 -10.151978,-4.931992c-2.232025,-1.584 -2.412018,-2.520004 -2.880005,-3.924011c-0.540009,-1.440002 -0.252014,-2.915993 -0.252014,-4.427994c-0.071991,-1.620003 -0.071991,-2.987999 0,-4.68c-0.03598,-1.692001 -0.03598,-3.564003 0,-5.472v-55.223999c-0.071991,-2.124001 0.108002,-4.032001 0.540009,-6.012001c0.432007,-2.088001 0.575989,-4.32 1.799988,-5.723999c1.044006,-1.296001 2.880005,-1.944 4.680023,-2.34c1.691986,-0.612003 3.888,-0.648003 5.759979,-0.792c1.800018,-0.144001 3.528015,-0.144001 5.184021,0h22.932007l-1.548004,-7.812z" clip-rule="evenodd"/>
      </g>
     </g>
     <path fill-rule="evenodd" fill="#7f7f7f" d="m30.420013,38.571999l1.044006,2.556c-2.772003,-0.251999 -5.436005,-0.251999 -8.388,0c-2.988007,0.144001 -6.516022,0.432003 -9.072021,1.152c-2.735992,0.648003 -4.967987,1.692001 -6.552002,2.988003c-1.547974,1.259998 -2.303986,2.771999 -2.843994,4.68c-0.68399,1.835999 -0.971985,3.924 -1.007996,6.407997v67.680004c-0.179993,1.944 0.036011,3.888 0.64801,5.687996c0.540009,1.692001 1.187988,3.455994 2.772003,5.147995c1.367981,1.62001 3.276001,3.132004 6.263977,4.968002c2.988007,1.764008 6.876007,3.708008 11.808014,5.832001c-4.320007,-1.332001 -8.063995,-2.807999 -11.231995,-4.283997c-3.347992,-1.584 -5.940002,-3.059998 -7.920013,-4.824005c-1.944,-1.90799 -3.023987,-2.843994 -3.671997,-6.119995c-0.720001,-3.276001 -1.079987,-7.776001 -0.791992,-13.5v-60.588001c-0.179993,-2.015999 0.036011,-3.815998 0.503998,-5.688c0.395996,-1.944 1.079987,-3.888 2.195984,-5.399998c1.044006,-1.620003 2.160004,-2.808002 4.46402,-3.852001c2.339996,-1.043999 5.652008,-1.799999 9.395996,-2.268002c3.671997,-0.539997 7.70401,-0.683998 12.384003,-0.576z" clip-rule="evenodd"/>
     <path fill-rule="evenodd" fill="#7f7f7f" d="m9.288025,46.528c-0.684021,0.108002 -1.296021,0.720001 -1.836029,1.835999c-0.64798,1.188 -1.079987,2.952003 -1.439972,4.716003c-0.360016,1.584 -0.504028,3.095997 -0.576019,4.679996v63.864002c-0.108002,2.699997 -0.03598,4.751999 0.216003,6.696007c0.179993,1.727997 0.360016,2.915985 1.223999,4.247986c0.791992,1.26001 0.972015,2.124008 3.85199,3.852005c2.880005,1.692001 7.056,3.923996 13.068024,6.552002l110.303986,46.404007c2.59201,1.079987 4.824005,2.339996 6.696014,3.635986c1.799988,1.188004 3.492004,2.736008 4.536011,4.068008c1.043976,1.259995 1.187958,2.123993 1.547974,3.852005c0.216003,1.727997 0.287994,3.85199 0.072021,6.515991v38.412003l2.015991,-0.287994v-41.832001c0.071991,-2.087997 -0.144012,-3.815994 -0.503998,-5.18399c-0.395996,-1.368011 -0.864014,-2.124008 -1.980011,-3.240005c-1.259979,-1.332001 -3.671997,-2.988007 -5.291992,-4.139999c-1.800018,-1.151993 -3.384003,-2.123993 -5.040009,-2.772003l-117.359985,-49.284012c-2.304016,-0.863998 -4.212006,-1.763992 -5.868011,-2.699997c-1.727997,-0.972 -3.20401,-2.015991 -4.140015,-3.132004c-0.899994,-1.259995 -1.511993,-2.123993 -1.691986,-4.391998c-0.324005,-2.376007 -0.467987,-5.507996 -0.287994,-9.540009v-61.883987c0.071991,-1.332001 0.216003,-2.700001 0.432007,-3.959999c0.215973,-1.368 0.503998,-2.700001 0.863983,-3.852001c0.324005,-1.188 0.721008,-2.231998 1.188019,-3.132z" clip-rule="evenodd"/>
     <path fill-rule="evenodd" fill="#7f7f7f" d="m117.756012,184.839996c7.488007,3.276001 13.032013,5.975998 17.063995,8.100006c3.81601,2.087997 5.14801,3.095993 6.515991,4.571991c1.368011,1.296005 1.29599,2.520004 1.727997,3.81601c0.288025,1.367996 0.432007,2.520004 0.288025,3.996002v40.248001h2.411987v-39.528c0.143982,-1.404007 0,-2.880005 -0.431976,-4.428009c-0.468018,-1.692001 -0.720001,-3.347992 -2.268036,-4.968002c-1.583984,-1.619995 -3.131989,-2.951996 -7.271973,-4.82399c-4.320007,-1.980011 -10.152008,-4.356003 -18.036011,-6.984009z" clip-rule="evenodd"/>
     <g>
      <switch fill="#7f7f7f" id="XMLID_4_"/>
      <g>
       <path fill-rule="evenodd" fill="#7f7f7f" d="m168.246002,7.504h-133.001984c-5.964996,0 -10.800018,4.835 -10.800018,10.800001v55.512001c0,5.964996 4.835022,10.799995 10.800018,10.799995h266.003998c5.965027,0 10.799988,-4.834999 10.799988,-10.799995v-55.512001c0,-5.965001 -4.834961,-10.800001 -10.799988,-10.800001h-133.002014l0,0z" clip-rule="evenodd"/>
      </g>
     </g>
     <g>
      <switch fill="#7f7f7f" id="XMLID_6_"/>
      <g>
       <path fill="#7f7f7f" fill-rule="evenodd" d="m144.036011,244.024002c-1.332001,-0.251999 -2.59198,-0.035995 -3.923981,0.791992c-1.476013,0.828003 -3.384033,1.979004 -4.176025,3.888c-0.827972,1.692001 -0.720001,2.700012 -0.503998,6.768005c0.251984,4.068008 0.756012,9.792007 1.800018,17.460007c-2.160004,15.768982 -3.672028,30.815979 -4.679993,46.115997c-1.008026,15.156006 -1.26004,26.712006 -1.296021,44.531982c-0.072021,17.928009 0.144012,38.052002 0.791992,61.740021c2.556,1.438995 4.932007,2.339996 7.272003,3.131989c2.303986,0.647003 4.428009,1.044006 6.516022,1.044006h2.879974c2.052002,0 4.176025,-0.395996 6.516022,-1.044006c2.303986,-0.791992 4.679993,-1.691986 7.271973,-3.131989c0.61203,-23.687988 0.828033,-43.812988 0.792023,-61.740021c-0.144012,-17.819977 -0.396027,-29.375977 -1.29599,-44.531982c-1.044006,-15.300018 -2.556,-30.347992 -4.680023,-46.115997c1.007996,-7.667999 1.511993,-13.391998 1.800018,-17.460007c0.143982,-4.067001 0.251984,-5.074997 -0.504028,-6.768005c-0.863983,-1.90799 -2.807983,-3.059998 -4.175964,-3.888c-1.368011,-0.827988 -2.628021,-1.043991 -3.924042,-0.791992h-6.47998l0,0z" clip-rule="evenodd"/>
       <path stroke-width="0.036" stroke-miterlimit="10" stroke="#000000" fill="#7f7f7f" d="m144.036011,244.024002c-1.332001,-0.251999 -2.59198,-0.035995 -3.923981,0.791992c-1.476013,0.828003 -3.384033,1.979004 -4.176025,3.888c-0.827972,1.692001 -0.720001,2.700012 -0.503998,6.768005c0.251984,4.068008 0.756012,9.792007 1.800018,17.460007c-2.160004,15.768982 -3.672028,30.815979 -4.679993,46.115997c-1.008026,15.156006 -1.26004,26.712006 -1.296021,44.531982c-0.072021,17.928009 0.144012,38.052002 0.791992,61.740021c2.556,1.438995 4.932007,2.339996 7.272003,3.131989c2.303986,0.647003 4.428009,1.044006 6.516022,1.044006h2.879974c2.052002,0 4.176025,-0.395996 6.516022,-1.044006c2.303986,-0.791992 4.679993,-1.691986 7.271973,-3.131989c0.61203,-23.687988 0.828033,-43.812988 0.792023,-61.740021c-0.144012,-17.819977 -0.396027,-29.375977 -1.29599,-44.531982c-1.044006,-15.300018 -2.556,-30.347992 -4.680023,-46.115997c1.007996,-7.667999 1.511993,-13.391998 1.800018,-17.460007c0.143982,-4.067001 0.251984,-5.074997 -0.504028,-6.768005c-0.863983,-1.90799 -2.807983,-3.059998 -4.175964,-3.888c-1.368011,-0.827988 -2.628021,-1.043991 -3.924042,-0.791992h-6.47998l0,0z"/>
      </g>
     </g>
     <path stroke-width="0.036" stroke-miterlimit="10" stroke="#000000" fill-rule="evenodd" fill="#7f7f7f" d="m136.727997,418.552002c-2.195984,-7.884003 -2.231995,-29.268005 -2.59198,-44.278992c-0.504028,-15.192017 -0.684021,-32.112 0,-45.324005c0.575989,-13.140991 2.339996,-23.437012 3.888,-32.832001c1.547974,-9.540009 3.563995,-22.248016 5.220001,-23.688019c1.439972,-1.511993 2.735992,3.38501 3.888,15.084015c1.115997,11.80899 2.268005,36.899994 2.879974,54.721008c0.503998,17.712006 0.684021,37.511993 0.252014,50.79599c-0.539978,13.140015 -0.936005,23.18399 -3.131989,27.610992c-2.304016,4.247009 -8.31601,5.542999 -10.404022,-2.088989z" clip-rule="evenodd"/>
     <path stroke-width="0.036" stroke-miterlimit="10" stroke="#000000" fill-rule="evenodd" fill="#7f7f7f" d="m142.200012,267.208008c-1.007996,-0.071991 -2.339996,-7.343994 -2.339996,-10.727997c0,-3.419998 1.332001,-9.324005 2.339996,-9.395996c0.972015,-0.036011 2.988007,5.327988 3.132019,8.855988c-0.144012,3.419983 -2.160004,11.015991 -3.132019,11.268005z" clip-rule="evenodd"/>
     <path fill-rule="evenodd" fill="#7f7f7f" d="m305.605011,13.3c3.131958,3.78 2.734985,6.551999 -1.045044,8.315999c-3.994995,1.692001 -21.454956,0.252001 -21.958923,2.088001c-0.433044,1.872 19.763977,5.112 19.33197,8.892c-0.721008,3.743999 -17.929016,12.167999 -22.464966,13.031998c-4.5,0.576 2.159973,-6.911999 -4.176025,-8.855999c-6.588013,-2.088001 -29.052002,-0.720001 -33.911987,-3.132c-4.824036,-2.483999 8.388977,-9.18 5.221008,-11.483999c-3.456055,-2.412001 -18.217041,-3.24 -24.55304,-2.628c-6.263977,0.504 -6.047974,3.996 -12.526978,5.76c-6.731995,1.691999 -21.348999,1.764 -26.641022,4.68c-5.147003,2.915998 3.600983,10.800001 -4.716003,12.527998c-8.675995,1.512001 -37.872009,-1.475998 -45.936005,-3.132c-8.063995,-1.907997 7.09201,-6.191998 -1.583984,-7.307999c-8.783997,-1.007999 -41.040009,1.98 -50.112,1.043999c-9.036011,-1.151999 1.584015,-6.083998 -3.671997,-7.307999c-5.544006,-1.223999 -21.744019,0.576 -28.187988,0c-6.40802,-0.756001 -6.984009,-2.700001 -9.936005,-4.176001c-3.167999,-1.476 -6.876007,-3.42 -8.35202,-4.716c-1.440002,-1.44 -1.440002,-2.592 0,-3.599999c0,-3.492001 4.824005,-6.3 10.800018,-6.3c84.527985,0 169.056,0 253.619965,0c5.940063,0 10.801025,2.808 10.801025,6.3z" clip-rule="evenodd"/>
    </g>
   </g>
  </switch>
 </g>
</svg>
