<?xml version="1.0" encoding="utf-8"?>
<!-- Generator: Adobe Illustrator 18.0.0, SVG Export Plug-In . SVG Version: 6.00 Build 0)  -->
<!DOCTYPE svg PUBLIC "-//W3C//DTD SVG 1.1//EN" "http://www.w3.org/Graphics/SVG/1.1/DTD/svg11.dtd">
<svg version="1.1" id="Layer_1" xmlns="http://www.w3.org/2000/svg" xmlns:xlink="http://www.w3.org/1999/xlink" x="0px" y="0px"
	 viewBox="0.3 7 311.7 422.5" enable-background="new 0.3 7 311.7 422.5" xml:space="preserve">
<title>grey paint roller</title>
<g>
	<title>Layer 1</title>
	<g>
		<g id="Layer_1_1_">
			<g>
				<g>
					<path fill="#7F7F7F" d="M47.1,37.6c-8.8-0.1-15.6-0.1-20.6,0c-5,0.1-6.4,0.3-9.4,0.8c-3.1,0.4-6.1,0.8-8.6,2.1
						c-2.6,1.2-5,3.1-6.3,5.5c-1.4,2.4-2,5.2-1.8,8.9v60.7c-0.1,1.9-0.1,4,0,6.5c0,2.5-0.5,5.7,0.3,8.3c0.6,2.3,1.9,4.2,3.9,6.3
						c1.9,2,4.9,3.9,7.8,5.5c2.8,1.5,6,2.8,9.4,3.9l95.1,40.6c2.8,0.9,5.6,2,8.6,3.4c2.9,1.4,6.2,3.2,8.9,4.7
						c2.6,1.4,4.8,2.2,6.2,3.9c1.2,1.7,1.1,3.6,1.3,6c0.3,2.3,0.3,4.8,0.3,7.8c-1.3,17.9-1.3,29.4,0,35.4c1.3,5.7,6.2,5.3,7.6-0.5
						c1.2-5.9,1.2-17.2,0-34.4c0.1-3.4,0.1-6.2,0-8.9c-0.2-2.6,0-4.9-0.8-6.8c-0.8-1.9-2.6-3.3-4.2-4.7c-1.7-1.5-3.7-2.6-6-3.9
						c-2.3-1.3-4.9-2.4-7.8-3.6c-3-1.3-6.3-2.7-9.9-4.2L21.1,139c-4.7-1.9-7.9-3.4-10.2-4.9c-2.2-1.6-2.4-2.5-2.9-3.9
						c-0.5-1.4-0.3-2.9-0.3-4.4c-0.1-1.6-0.1-3,0-4.7c0-1.7,0-3.6,0-5.5V60.3c-0.1-2.1,0.1-4,0.5-6c0.4-2.1,0.6-4.3,1.8-5.7
						c1-1.3,2.9-1.9,4.7-2.3c1.7-0.6,3.9-0.6,5.8-0.8c1.8-0.1,3.5-0.1,5.2,0h22.9L47.1,37.6z"/>
				</g>
			</g>
			<path fill="#7F7F7F" d="M30.4,38.6l1,2.6c-2.8-0.3-5.4-0.3-8.4,0c-3,0.1-6.5,0.4-9.1,1.2c-2.7,0.6-5,1.7-6.6,3
				c-1.5,1.3-2.3,2.8-2.8,4.7c-0.7,1.8-1,3.9-1,6.4V124c-0.2,1.9,0,3.9,0.6,5.7c0.5,1.7,1.2,3.5,2.8,5.1c1.4,1.6,3.3,3.1,6.3,5
				c3,1.8,6.9,3.7,11.8,5.8c-4.3-1.3-8.1-2.8-11.2-4.3c-3.3-1.6-5.9-3.1-7.9-4.8c-1.9-1.9-3-2.8-3.7-6.1c-0.7-3.3-1.1-7.8-0.8-13.5
				V56.4c-0.2-2,0-3.8,0.5-5.7c0.4-1.9,1.1-3.9,2.2-5.4c1-1.6,2.2-2.8,4.5-3.9c2.3-1,5.7-1.8,9.4-2.3C21.7,38.6,25.7,38.5,30.4,38.6
				z"/>
			<path fill="#7F7F7F" d="M9.3,46.5c-0.7,0.1-1.3,0.7-1.8,1.8c-0.6,1.2-1.1,3-1.4,4.7c-0.4,1.6-0.5,3.1-0.6,4.7v63.9
				c-0.1,2.7,0,4.8,0.2,6.7c0.2,1.7,0.4,2.9,1.2,4.2c0.8,1.3,1,2.1,3.9,3.9c2.9,1.7,7.1,3.9,13.1,6.6l110.3,46.4
				c2.6,1.1,4.8,2.3,6.7,3.6c1.8,1.2,3.5,2.7,4.5,4.1c1,1.3,1.2,2.1,1.5,3.9c0.2,1.7,0.3,3.9,0.1,6.5v38.4l2-0.3v-41.8
				c0.1-2.1-0.1-3.8-0.5-5.2c-0.4-1.4-0.9-2.1-2-3.2c-1.3-1.3-3.7-3-5.3-4.1c-1.8-1.2-3.4-2.1-5-2.8L18.8,139.1
				c-2.3-0.9-4.2-1.8-5.9-2.7c-1.7-1-3.2-2-4.1-3.1c-0.9-1.3-1.5-2.1-1.7-4.4c-0.3-2.4-0.5-5.5-0.3-9.5V57.5c0.1-1.3,0.2-2.7,0.4-4
				c0.2-1.4,0.5-2.7,0.9-3.9C8.4,48.5,8.8,47.4,9.3,46.5z"/>
			<path fill="#7F7F7F" d="M117.8,184.8c7.5,3.3,13,6,17.1,8.1c3.8,2.1,5.1,3.1,6.5,4.6c1.4,1.3,1.3,2.5,1.7,3.8
				c0.3,1.4,0.4,2.5,0.3,4v40.2h2.4V206c0.1-1.4,0-2.9-0.4-4.4c-0.5-1.7-0.7-3.3-2.3-5c-1.6-1.6-3.1-3-7.3-4.8
				C131.5,189.8,125.6,187.5,117.8,184.8z"/>
			<g>
				<g>
					<path fill="#7F7F7F" d="M168.2,7.5h-133c-6,0-10.8,4.8-10.8,10.8v55.5c0,6,4.8,10.8,10.8,10.8h266c6,0,10.8-4.8,10.8-10.8V18.3
						c0-6-4.8-10.8-10.8-10.8L168.2,7.5C168.2,7.5,168.2,7.5,168.2,7.5z"/>
				</g>
			</g>
			<g>
				<g>
					<path fill="#7F7F7F" d="M144,244c-1.3-0.3-2.6,0-3.9,0.8c-1.5,0.8-3.4,2-4.2,3.9c-0.8,1.7-0.7,2.7-0.5,6.8
						c0.3,4.1,0.8,9.8,1.8,17.5c-2.2,15.8-3.7,30.8-4.7,46.1c-1,15.2-1.3,26.7-1.3,44.5c-0.1,17.9,0.1,38.1,0.8,61.7
						c2.6,1.4,4.9,2.3,7.3,3.1c2.3,0.6,4.4,1,6.5,1h2.9c2.1,0,4.2-0.4,6.5-1c2.3-0.8,4.7-1.7,7.3-3.1c0.6-23.7,0.8-43.8,0.8-61.7
						c-0.1-17.8-0.4-29.4-1.3-44.5c-1-15.3-2.6-30.3-4.7-46.1c1-7.7,1.5-13.4,1.8-17.5c0.1-4.1,0.3-5.1-0.5-6.8
						c-0.9-1.9-2.8-3.1-4.2-3.9c-1.4-0.8-2.6-1-3.9-0.8H144L144,244z"/>
					<path fill="#7F7F7F" stroke="#000000" stroke-width="3.600000e-02" stroke-miterlimit="10" d="M144,244c-1.3-0.3-2.6,0-3.9,0.8
						c-1.5,0.8-3.4,2-4.2,3.9c-0.8,1.7-0.7,2.7-0.5,6.8c0.3,4.1,0.8,9.8,1.8,17.5c-2.2,15.8-3.7,30.8-4.7,46.1
						c-1,15.2-1.3,26.7-1.3,44.5c-0.1,17.9,0.1,38.1,0.8,61.7c2.6,1.4,4.9,2.3,7.3,3.1c2.3,0.6,4.4,1,6.5,1h2.9c2.1,0,4.2-0.4,6.5-1
						c2.3-0.8,4.7-1.7,7.3-3.1c0.6-23.7,0.8-43.8,0.8-61.7c-0.1-17.8-0.4-29.4-1.3-44.5c-1-15.3-2.6-30.3-4.7-46.1
						c1-7.7,1.5-13.4,1.8-17.5c0.1-4.1,0.3-5.1-0.5-6.8c-0.9-1.9-2.8-3.1-4.2-3.9c-1.4-0.8-2.6-1-3.9-0.8H144L144,244z"/>
				</g>
			</g>
			<path fill="#7F7F7F" stroke="#000000" stroke-width="3.600000e-02" stroke-miterlimit="10" d="M136.7,418.6
				c-2.2-7.9-2.2-29.3-2.6-44.3c-0.5-15.2-0.7-32.1,0-45.3c0.6-13.1,2.3-23.4,3.9-32.8c1.5-9.5,3.6-22.2,5.2-23.7
				c1.4-1.5,2.7,3.4,3.9,15.1c1.1,11.8,2.3,36.9,2.9,54.7c0.5,17.7,0.7,37.5,0.3,50.8c-0.5,13.1-0.9,23.2-3.1,27.6
				C144.8,424.9,138.8,426.2,136.7,418.6z"/>
			<path fill="#7F7F7F" stroke="#000000" stroke-width="3.600000e-02" stroke-miterlimit="10" d="M142.2,267.2
				c-1-0.1-2.3-7.3-2.3-10.7c0-3.4,1.3-9.3,2.3-9.4c1,0,3,5.3,3.1,8.9C145.2,259.4,143.2,267,142.2,267.2z"/>
			<path fill="#7F7F7F" d="M305.6,13.3c3.1,3.8,2.7,6.6-1,8.3c-4,1.7-21.5,0.3-22,2.1c-0.4,1.9,19.8,5.1,19.3,8.9
				c-0.7,3.7-17.9,12.2-22.5,13c-4.5,0.6,2.2-6.9-4.2-8.9c-6.6-2.1-29.1-0.7-33.9-3.1c-4.8-2.5,8.4-9.2,5.2-11.5
				c-3.5-2.4-18.2-3.2-24.6-2.6c-6.3,0.5-6,4-12.5,5.8c-6.7,1.7-21.3,1.8-26.6,4.7c-5.1,2.9,3.6,10.8-4.7,12.5
				c-8.7,1.5-37.9-1.5-45.9-3.1c-8.1-1.9,7.1-6.2-1.6-7.3c-8.8-1-41,2-50.1,1c-9-1.2,1.6-6.1-3.7-7.3c-5.5-1.2-21.7,0.6-28.2,0
				c-6.4-0.8-7-2.7-9.9-4.2c-3.2-1.5-6.9-3.4-8.4-4.7c-1.4-1.4-1.4-2.6,0-3.6c0-3.5,4.8-6.3,10.8-6.3c84.5,0,169.1,0,253.6,0
				C300.7,7,305.6,9.8,305.6,13.3z"/>
		</g>
	</g>
</g>
</svg>
